<svg width="72" height="18" viewBox="0 0 72 18" fill="none" xmlns="http://www.w3.org/2000/svg">
<path d="M11.2922 3.64505C11.1754 3.83198 11.0508 3.97217 10.9184 4.06563C10.7938 4.1591 10.6302 4.20583 10.4277 4.20583C10.2486 4.20583 10.0539 4.15131 9.84357 4.04227C9.64107 3.92544 9.40741 3.79693 9.1426 3.65673C8.88558 3.51654 8.58961 3.39192 8.2547 3.28288C7.91979 3.16605 7.53815 3.10764 7.10978 3.10764C6.36987 3.10764 5.81688 3.26731 5.45082 3.58664C5.09254 3.89818 4.91341 4.32266 4.91341 4.86007C4.91341 5.20277 5.02245 5.48705 5.24053 5.71292C5.45861 5.93879 5.74289 6.1335 6.09337 6.29706C6.45165 6.46062 6.85665 6.6125 7.30839 6.75269C7.76792 6.8851 8.23523 7.03697 8.71033 7.20832C9.18544 7.37188 9.64886 7.5666 10.1006 7.79247C10.5601 8.01833 10.9651 8.30651 11.3156 8.657C11.6739 9.00748 11.9621 9.43585 12.1801 9.94211C12.3982 10.4406 12.5073 11.0442 12.5073 11.753C12.5073 12.5396 12.371 13.2756 12.0984 13.961C11.8258 14.6464 11.4285 15.2461 10.9067 15.7602C10.3927 16.2664 9.754 16.6675 8.99072 16.9635C8.23523 17.2517 7.37459 17.3958 6.40881 17.3958C5.87919 17.3958 5.33788 17.3413 4.78489 17.2322C4.23969 17.1232 3.71007 16.9713 3.19603 16.7766C2.68198 16.5741 2.19909 16.3365 1.74735 16.0639V16.0639C0.999279 15.6125 0.899394 14.6281 1.36666 13.8898L1.73567 13.3068C1.82913 13.1744 1.94985 13.0653 2.09784 12.9797C2.25361 12.8862 2.42106 12.8395 2.6002 12.8395C2.83386 12.8395 3.06751 12.9135 3.30117 13.0614C3.54262 13.2094 3.81132 13.373 4.10729 13.5521C4.41104 13.7313 4.75763 13.8948 5.14706 14.0428C5.53649 14.1908 5.99602 14.2648 6.52564 14.2648C7.24219 14.2648 7.79907 14.109 8.19629 13.7975C8.59351 13.4781 8.79211 12.9758 8.79211 12.2904C8.79211 11.8931 8.68307 11.5699 8.46499 11.3207C8.24691 11.0715 7.95874 10.8651 7.60046 10.7015C7.24998 10.5379 6.84887 10.3938 6.39713 10.2692C5.94539 10.1446 5.48197 10.0083 5.00687 9.86033C4.53177 9.70456 4.06835 9.51763 3.61661 9.29955C3.16487 9.07369 2.75987 8.78161 2.40159 8.42334C2.05111 8.05728 1.76682 7.60554 1.54874 7.06813C1.33066 6.52293 1.22162 5.85311 1.22162 5.05868C1.22162 4.42001 1.35013 3.79693 1.60716 3.18942C1.86418 2.58191 2.24193 2.0406 2.74039 1.5655C3.23886 1.0904 3.85027 0.712654 4.5746 0.432265C5.29894 0.144088 6.12842 0 7.06305 0C7.58489 0 8.09114 0.0428373 8.58182 0.128512C9.08029 0.206397 9.5515 0.32712 9.99545 0.490679C10.4394 0.646451 10.8522 0.837272 11.2338 1.06314V1.06314C11.8934 1.43248 12.0246 2.27617 11.668 2.94268L11.2922 3.64505Z" fill="white"/>
<path d="M29.0411 10.7015L27.4639 6.04004C27.347 5.74407 27.2224 5.39748 27.09 5.00026C26.9576 4.59526 26.8252 4.1591 26.6928 3.69178C26.576 4.16689 26.4514 4.60694 26.319 5.01195C26.1865 5.41695 26.0619 5.76744 25.9451 6.0634L24.3796 10.7015H29.0411ZM35.3148 17.2088H32.2538C31.9111 17.2088 31.6347 17.131 31.4244 16.9752C31.2141 16.8116 31.0544 16.6052 30.9454 16.356L29.0411 10.7015H24.3796L22.4636 16.356C22.3779 16.5741 22.2222 16.7727 21.9963 16.9518C21.7782 17.1232 21.5056 17.2088 21.1785 17.2088H18.0942L24.6834 0.186926H26.7045H28.7256L35.3148 17.2088Z" fill="white"/>
<path d="M46.2368 17.2088H42.2646V8.69789V4.44241V0.186926H46.2368V17.2088Z" fill="white"/>
<path d="M60.7823 3.75525L69.5674 3.75525L69.5674 12.5403M68.9573 4.36532L58.0642 15.3708" stroke="#6A48F2" stroke-width="3" stroke-linecap="round" stroke-linejoin="round"/>
</svg>
